<svg width="16" height="16" viewBox="0 0 16 16" fill="none" xmlns="http://www.w3.org/2000/svg">
<path d="M15.4044 3.29413L12.6643 0.544205C12.3067 0.207084 11.8381 0.0136488 11.3477 0.000695267C10.8572 -0.0122583 10.3791 0.156174 10.0043 0.473951L1.00421 9.50655C0.680976 9.8337 0.479713 10.2625 0.434208 10.7209L0.004203 14.906C-0.00926819 15.053 0.00973739 15.2012 0.0598648 15.34C0.109992 15.4788 0.190007 15.6047 0.294206 15.7089C0.387647 15.802 0.498465 15.8755 0.620304 15.9255C0.742142 15.9754 0.872606 16.0007 1.00421 16H1.09422L5.26426 15.6186C5.72106 15.5729 6.14831 15.3709 6.47428 15.0465L15.4744 6.01395C15.8237 5.64358 16.0125 5.14933 15.9994 4.63952C15.9862 4.12971 15.7723 3.64591 15.4044 3.29413ZM5.08426 13.6114L2.08423 13.8924L2.35423 10.8815L8.00429 5.2813L10.7043 7.99108L5.08426 13.6114ZM12.0043 6.64623L9.32431 3.95652L11.2743 1.94928L14.0044 4.68916L12.0043 6.64623Z" fill="#36373D"/>
</svg>
