<svg width="12" height="7" viewBox="0 0 12 7" fill="none" xmlns="http://www.w3.org/2000/svg">
<path d="M6 0.925293C2.28436 0.925293 0 3.92529 0 3.92529C0 3.92529 2.28436 6.92529 6 6.92529C9.71564 6.92529 12 3.92529 12 3.92529C12 3.92529 9.71564 0.925293 6 0.925293ZM6 5.92529C3.84927 5.92529 2.22218 4.68329 1.42909 3.92529C1.99636 3.38279 2.99073 2.59679 4.29545 2.19029C3.98843 2.54056 3.82016 2.97597 3.81818 3.42529C3.81818 4.53029 4.79455 5.42529 6 5.42529C7.20545 5.42529 8.18182 4.53029 8.18182 3.42529C8.18182 2.95679 7.99909 2.53179 7.70455 2.19029C9.00982 2.59679 10.0042 3.38329 10.5704 3.92529C9.77618 4.68429 8.14964 5.92529 5.99945 5.92529H6Z" fill="#4E4F5A"/>
</svg>
