<svg width="30" height="31" viewBox="0 0 30 31" fill="none" xmlns="http://www.w3.org/2000/svg">
<path d="M27.2569 12.6095H26.25V12.5576H15V17.5576H22.0644C21.0338 20.4682 18.2644 22.5576 15 22.5576C10.8581 22.5576 7.5 19.1995 7.5 15.0576C7.5 10.9157 10.8581 7.55762 15 7.55762C16.9119 7.55762 18.6513 8.27887 19.9756 9.45699L23.5113 5.92137C21.2788 3.84074 18.2925 2.55762 15 2.55762C8.09687 2.55762 2.5 8.15449 2.5 15.0576C2.5 21.9607 8.09687 27.5576 15 27.5576C21.9031 27.5576 27.5 21.9607 27.5 15.0576C27.5 14.2195 27.4138 13.4014 27.2569 12.6095Z" fill="#4E4F5A"/>
<path d="M3.94141 9.23949L8.04828 12.2514C9.15953 9.50012 11.8508 7.55762 15.0002 7.55762C16.912 7.55762 18.6514 8.27887 19.9758 9.45699L23.5114 5.92137C21.2789 3.84074 18.2927 2.55762 15.0002 2.55762C10.1989 2.55762 6.03516 5.26824 3.94141 9.23949Z" fill="#36373D"/>
<path d="M14.9992 27.5576C18.228 27.5576 21.1617 26.3219 23.3798 24.3126L19.5111 21.0388C18.2139 22.0253 16.6289 22.5588 14.9992 22.5576C11.748 22.5576 8.98734 20.4844 7.94734 17.5913L3.87109 20.7319C5.93984 24.7801 10.1411 27.5576 14.9992 27.5576Z" fill="#BFBFBF"/>
<path d="M27.2569 12.6095H26.25V12.5576H15V17.5576H22.0644C21.5714 18.9429 20.6833 20.1534 19.51 21.0395L19.5119 21.0382L23.3806 24.312C23.1069 24.5607 27.5 21.3076 27.5 15.0576C27.5 14.2195 27.4137 13.4014 27.2569 12.6095Z" fill="#E2E2E2"/>
</svg>
