<svg width="16" height="16" viewBox="0 0 16 16" fill="none" xmlns="http://www.w3.org/2000/svg">
<path d="M14.324 12.093H13.0429C12.9554 12.093 12.8734 12.1321 12.8187 12.2009C12.6912 12.3591 12.5545 12.5116 12.4105 12.6567C11.8217 13.2585 11.1243 13.738 10.3568 14.0688C9.5616 14.4117 8.70694 14.5876 7.84376 14.586C6.97086 14.586 6.12529 14.4112 5.33075 14.0688C4.56323 13.738 3.86578 13.2585 3.27697 12.6567C2.68711 12.0571 2.21677 11.3463 1.892 10.5637C1.55486 9.75257 1.38538 8.89118 1.38538 8.00001C1.38538 7.10885 1.55668 6.24746 1.892 5.4363C2.21637 4.65304 2.68289 3.94793 3.27697 3.34328C3.87106 2.73863 4.56172 2.26235 5.33075 1.93119C6.12529 1.58886 6.97086 1.41398 7.84376 1.41398C8.71666 1.41398 9.56223 1.587 10.3568 1.93119C11.1258 2.26235 11.8165 2.73863 12.4105 3.34328C12.5545 3.49025 12.6894 3.64281 12.8187 3.79909C12.8734 3.86793 12.9572 3.907 13.0429 3.907H14.324C14.4388 3.907 14.5099 3.77677 14.4461 3.67816C13.0484 1.46049 10.6028 -0.00741368 7.82371 2.81649e-05C3.45739 0.0111909 -0.0433308 3.62979 0.000405388 8.08187C0.0441416 12.4633 3.53939 16 7.84376 16C10.6155 16 13.0502 14.534 14.4461 12.3219C14.5081 12.2233 14.4388 12.093 14.324 12.093ZM15.9441 7.8828L13.3582 5.79909C13.2616 5.72095 13.1213 5.79165 13.1213 5.9163V7.33025H7.39911C7.31893 7.33025 7.25332 7.39722 7.25332 7.47908V8.52094C7.25332 8.6028 7.31893 8.66978 7.39911 8.66978H13.1213V10.0837C13.1213 10.2084 13.2634 10.2791 13.3582 10.2009L15.9441 8.11722C15.9615 8.1033 15.9756 8.08551 15.9853 8.0652C15.995 8.0449 16 8.0226 16 8.00001C16 7.97742 15.995 7.95513 15.9853 7.93482C15.9756 7.91452 15.9615 7.89673 15.9441 7.8828Z" fill="#36373D"/>
</svg>
