<svg width="16" height="16" viewBox="0 0 16 16" fill="none" xmlns="http://www.w3.org/2000/svg">
<path d="M4.83333 1.44H4.66667C4.75833 1.44 4.83333 1.368 4.83333 1.28V1.44H11.1667V1.28C11.1667 1.368 11.2417 1.44 11.3333 1.44H11.1667V2.88H12.6667V1.28C12.6667 0.574 12.0688 0 11.3333 0H4.66667C3.93125 0 3.33333 0.574 3.33333 1.28V2.88H4.83333V1.44ZM15.3333 2.88H0.666667C0.297917 2.88 0 3.166 0 3.52V4.16C0 4.248 0.075 4.32 0.166667 4.32H1.425L1.93958 14.78C1.97292 15.462 2.56042 16 3.27083 16H12.7292C13.4417 16 14.0271 15.464 14.0604 14.78L14.575 4.32H15.8333C15.925 4.32 16 4.248 16 4.16V3.52C16 3.166 15.7021 2.88 15.3333 2.88ZM12.5688 14.56H3.43125L2.92708 4.32H13.0729L12.5688 14.56Z" fill="#CC7160"/>
</svg>
