<svg width="13" height="16" viewBox="0 0 13 16" fill="none" xmlns="http://www.w3.org/2000/svg">
<path d="M7.94586 0.5H5.05731C4.66013 0.5 4.33517 0.821429 4.33517 1.21429C4.33517 1.60714 4.66013 1.92857 5.05731 1.92857H7.94586C8.34303 1.92857 8.66799 1.60714 8.66799 1.21429C8.66799 0.821429 8.34303 0.5 7.94586 0.5ZM6.50158 9.78571C6.89876 9.78571 7.22372 9.46428 7.22372 9.07143V6.21429C7.22372 5.82143 6.89876 5.5 6.50158 5.5C6.10441 5.5 5.77945 5.82143 5.77945 6.21429V9.07143C5.77945 9.46428 6.10441 9.78571 6.50158 9.78571ZM11.5782 5.06429L12.1198 4.52857C12.2533 4.39568 12.3283 4.21593 12.3283 4.02857C12.3283 3.84121 12.2533 3.66146 12.1198 3.52857L12.1126 3.52143C11.9782 3.38935 11.7965 3.31522 11.6071 3.31522C11.4177 3.31522 11.2359 3.38935 11.1016 3.52143L10.56 4.05714C9.40987 3.14166 7.97787 2.64264 6.50158 2.64286C3.03533 2.64286 0.0890071 5.47143 0.00235064 8.9C-0.0210031 9.75858 0.129858 10.6131 0.446021 11.413C0.762184 12.2129 1.23724 12.9421 1.84311 13.5573C2.44898 14.1726 3.17338 14.6615 3.9735 14.9952C4.77363 15.3288 5.63325 15.5005 6.50158 15.5C7.72511 15.5007 8.92393 15.1594 9.95999 14.5157C10.996 13.8719 11.8272 12.9518 12.3577 11.8612C12.8882 10.7707 13.0965 9.55412 12.9586 8.35161C12.8207 7.1491 12.3422 6.00958 11.5782 5.06429ZM6.50158 14.0714C3.70691 14.0714 1.44662 11.8357 1.44662 9.07143C1.44662 6.30714 3.70691 4.07143 6.50158 4.07143C9.29625 4.07143 11.5565 6.30714 11.5565 9.07143C11.5565 11.8357 9.29625 14.0714 6.50158 14.0714Z" fill="#4E4F5A"/>
</svg>
